<?xml version="1.0" standalone="no"?>
<svg xmlns="http://www.w3.org/2000/svg" width="280" height="280" xmlns:xlink="http://www.w3.org/1999/xlink" viewBox="0 0 280 280"><defs><clipPath id="clip-path-background-color-1"><rect x="0" y="0" width="280" height="280"/></clipPath><clipPath id="clip-path-dot-color-1"><rect x="80" y="8" width="8" height="8" transform="rotate(0,84,12)"/><rect x="88" y="8" width="8" height="8" transform="rotate(0,92,12)"/><rect x="112" y="8" width="8" height="8" transform="rotate(0,116,12)"/><rect x="136" y="8" width="8" height="8" transform="rotate(0,140,12)"/><rect x="184" y="8" width="8" height="8" transform="rotate(0,188,12)"/><rect x="72" y="16" width="8" height="8" transform="rotate(0,76,20)"/><rect x="104" y="16" width="8" height="8" transform="rotate(0,108,20)"/><rect x="112" y="16" width="8" height="8" transform="rotate(0,116,20)"/><rect x="120" y="16" width="8" height="8" transform="rotate(0,124,20)"/><rect x="136" y="16" width="8" height="8" transform="rotate(0,140,20)"/><rect x="144" y="16" width="8" height="8" transform="rotate(0,148,20)"/><rect x="160" y="16" width="8" height="8" transform="rotate(0,164,20)"/><rect x="168" y="16" width="8" height="8" transform="rotate(0,172,20)"/><rect x="176" y="16" width="8" height="8" transform="rotate(0,180,20)"/><rect x="184" y="16" width="8" height="8" transform="rotate(0,188,20)"/><rect x="104" y="24" width="8" height="8" transform="rotate(0,108,28)"/><rect x="112" y="24" width="8" height="8" transform="rotate(0,116,28)"/><rect x="144" y="24" width="8" height="8" transform="rotate(0,148,28)"/><rect x="152" y="24" width="8" height="8" transform="rotate(0,156,28)"/><rect x="168" y="24" width="8" height="8" transform="rotate(0,172,28)"/><rect x="184" y="24" width="8" height="8" transform="rotate(0,188,28)"/><rect x="192" y="24" width="8" height="8" transform="rotate(0,196,28)"/><rect x="72" y="32" width="8" height="8" transform="rotate(0,76,36)"/><rect x="80" y="32" width="8" height="8" transform="rotate(0,84,36)"/><rect x="88" y="32" width="8" height="8" transform="rotate(0,92,36)"/><rect x="96" y="32" width="8" height="8" transform="rotate(0,100,36)"/><rect x="128" y="32" width="8" height="8" transform="rotate(0,132,36)"/><rect x="136" y="32" width="8" height="8" transform="rotate(0,140,36)"/><rect x="192" y="32" width="8" height="8" transform="rotate(0,196,36)"/><rect x="72" y="40" width="8" height="8" transform="rotate(0,76,44)"/><rect x="88" y="40" width="8" height="8" transform="rotate(0,92,44)"/><rect x="96" y="40" width="8" height="8" transform="rotate(0,100,44)"/><rect x="104" y="40" width="8" height="8" transform="rotate(0,108,44)"/><rect x="112" y="40" width="8" height="8" transform="rotate(0,116,44)"/><rect x="136" y="40" width="8" height="8" transform="rotate(0,140,44)"/><rect x="144" y="40" width="8" height="8" transform="rotate(0,148,44)"/><rect x="152" y="40" width="8" height="8" transform="rotate(0,156,44)"/><rect x="168" y="40" width="8" height="8" transform="rotate(0,172,44)"/><rect x="176" y="40" width="8" height="8" transform="rotate(0,180,44)"/><rect x="192" y="40" width="8" height="8" transform="rotate(0,196,44)"/><rect x="200" y="40" width="8" height="8" transform="rotate(0,204,44)"/><rect x="80" y="48" width="8" height="8" transform="rotate(0,84,52)"/><rect x="104" y="48" width="8" height="8" transform="rotate(0,108,52)"/><rect x="136" y="48" width="8" height="8" transform="rotate(0,140,52)"/><rect x="152" y="48" width="8" height="8" transform="rotate(0,156,52)"/><rect x="168" y="48" width="8" height="8" transform="rotate(0,172,52)"/><rect x="192" y="48" width="8" height="8" transform="rotate(0,196,52)"/><rect x="72" y="56" width="8" height="8" transform="rotate(0,76,60)"/><rect x="88" y="56" width="8" height="8" transform="rotate(0,92,60)"/><rect x="104" y="56" width="8" height="8" transform="rotate(0,108,60)"/><rect x="120" y="56" width="8" height="8" transform="rotate(0,124,60)"/><rect x="136" y="56" width="8" height="8" transform="rotate(0,140,60)"/><rect x="152" y="56" width="8" height="8" transform="rotate(0,156,60)"/><rect x="168" y="56" width="8" height="8" transform="rotate(0,172,60)"/><rect x="184" y="56" width="8" height="8" transform="rotate(0,188,60)"/><rect x="200" y="56" width="8" height="8" transform="rotate(0,204,60)"/><rect x="72" y="64" width="8" height="8" transform="rotate(0,76,68)"/><rect x="80" y="64" width="8" height="8" transform="rotate(0,84,68)"/><rect x="120" y="64" width="8" height="8" transform="rotate(0,124,68)"/><rect x="152" y="64" width="8" height="8" transform="rotate(0,156,68)"/><rect x="160" y="64" width="8" height="8" transform="rotate(0,164,68)"/><rect x="168" y="64" width="8" height="8" transform="rotate(0,172,68)"/><rect x="200" y="64" width="8" height="8" transform="rotate(0,204,68)"/><rect x="16" y="72" width="8" height="8" transform="rotate(0,20,76)"/><rect x="32" y="72" width="8" height="8" transform="rotate(0,36,76)"/><rect x="40" y="72" width="8" height="8" transform="rotate(0,44,76)"/><rect x="48" y="72" width="8" height="8" transform="rotate(0,52,76)"/><rect x="56" y="72" width="8" height="8" transform="rotate(0,60,76)"/><rect x="72" y="72" width="8" height="8" transform="rotate(0,76,76)"/><rect x="88" y="72" width="8" height="8" transform="rotate(0,92,76)"/><rect x="112" y="72" width="8" height="8" transform="rotate(0,116,76)"/><rect x="120" y="72" width="8" height="8" transform="rotate(0,124,76)"/><rect x="128" y="72" width="8" height="8" transform="rotate(0,132,76)"/><rect x="144" y="72" width="8" height="8" transform="rotate(0,148,76)"/><rect x="160" y="72" width="8" height="8" transform="rotate(0,164,76)"/><rect x="200" y="72" width="8" height="8" transform="rotate(0,204,76)"/><rect x="208" y="72" width="8" height="8" transform="rotate(0,212,76)"/><rect x="216" y="72" width="8" height="8" transform="rotate(0,220,76)"/><rect x="232" y="72" width="8" height="8" transform="rotate(0,236,76)"/><rect x="240" y="72" width="8" height="8" transform="rotate(0,244,76)"/><rect x="256" y="72" width="8" height="8" transform="rotate(0,260,76)"/><rect x="8" y="80" width="8" height="8" transform="rotate(0,12,84)"/><rect x="24" y="80" width="8" height="8" transform="rotate(0,28,84)"/><rect x="32" y="80" width="8" height="8" transform="rotate(0,36,84)"/><rect x="48" y="80" width="8" height="8" transform="rotate(0,52,84)"/><rect x="112" y="80" width="8" height="8" transform="rotate(0,116,84)"/><rect x="120" y="80" width="8" height="8" transform="rotate(0,124,84)"/><rect x="128" y="80" width="8" height="8" transform="rotate(0,132,84)"/><rect x="152" y="80" width="8" height="8" transform="rotate(0,156,84)"/><rect x="160" y="80" width="8" height="8" transform="rotate(0,164,84)"/><rect x="184" y="80" width="8" height="8" transform="rotate(0,188,84)"/><rect x="192" y="80" width="8" height="8" transform="rotate(0,196,84)"/><rect x="232" y="80" width="8" height="8" transform="rotate(0,236,84)"/><rect x="240" y="80" width="8" height="8" transform="rotate(0,244,84)"/><rect x="248" y="80" width="8" height="8" transform="rotate(0,252,84)"/><rect x="256" y="80" width="8" height="8" transform="rotate(0,260,84)"/><rect x="8" y="88" width="8" height="8" transform="rotate(0,12,92)"/><rect x="16" y="88" width="8" height="8" transform="rotate(0,20,92)"/><rect x="48" y="88" width="8" height="8" transform="rotate(0,52,92)"/><rect x="56" y="88" width="8" height="8" transform="rotate(0,60,92)"/><rect x="64" y="88" width="8" height="8" transform="rotate(0,68,92)"/><rect x="96" y="88" width="8" height="8" transform="rotate(0,100,92)"/><rect x="112" y="88" width="8" height="8" transform="rotate(0,116,92)"/><rect x="120" y="88" width="8" height="8" transform="rotate(0,124,92)"/><rect x="128" y="88" width="8" height="8" transform="rotate(0,132,92)"/><rect x="136" y="88" width="8" height="8" transform="rotate(0,140,92)"/><rect x="144" y="88" width="8" height="8" transform="rotate(0,148,92)"/><rect x="152" y="88" width="8" height="8" transform="rotate(0,156,92)"/><rect x="168" y="88" width="8" height="8" transform="rotate(0,172,92)"/><rect x="176" y="88" width="8" height="8" transform="rotate(0,180,92)"/><rect x="192" y="88" width="8" height="8" transform="rotate(0,196,92)"/><rect x="216" y="88" width="8" height="8" transform="rotate(0,220,92)"/><rect x="232" y="88" width="8" height="8" transform="rotate(0,236,92)"/><rect x="240" y="88" width="8" height="8" transform="rotate(0,244,92)"/><rect x="248" y="88" width="8" height="8" transform="rotate(0,252,92)"/><rect x="256" y="88" width="8" height="8" transform="rotate(0,260,92)"/><rect x="264" y="88" width="8" height="8" transform="rotate(0,268,92)"/><rect x="8" y="96" width="8" height="8" transform="rotate(0,12,100)"/><rect x="16" y="96" width="8" height="8" transform="rotate(0,20,100)"/><rect x="24" y="96" width="8" height="8" transform="rotate(0,28,100)"/><rect x="40" y="96" width="8" height="8" transform="rotate(0,44,100)"/><rect x="72" y="96" width="8" height="8" transform="rotate(0,76,100)"/><rect x="80" y="96" width="8" height="8" transform="rotate(0,84,100)"/><rect x="88" y="96" width="8" height="8" transform="rotate(0,92,100)"/><rect x="96" y="96" width="8" height="8" transform="rotate(0,100,100)"/><rect x="128" y="96" width="8" height="8" transform="rotate(0,132,100)"/><rect x="144" y="96" width="8" height="8" transform="rotate(0,148,100)"/><rect x="160" y="96" width="8" height="8" transform="rotate(0,164,100)"/><rect x="168" y="96" width="8" height="8" transform="rotate(0,172,100)"/><rect x="200" y="96" width="8" height="8" transform="rotate(0,204,100)"/><rect x="208" y="96" width="8" height="8" transform="rotate(0,212,100)"/><rect x="224" y="96" width="8" height="8" transform="rotate(0,228,100)"/><rect x="248" y="96" width="8" height="8" transform="rotate(0,252,100)"/><rect x="16" y="104" width="8" height="8" transform="rotate(0,20,108)"/><rect x="24" y="104" width="8" height="8" transform="rotate(0,28,108)"/><rect x="32" y="104" width="8" height="8" transform="rotate(0,36,108)"/><rect x="40" y="104" width="8" height="8" transform="rotate(0,44,108)"/><rect x="56" y="104" width="8" height="8" transform="rotate(0,60,108)"/><rect x="72" y="104" width="8" height="8" transform="rotate(0,76,108)"/><rect x="96" y="104" width="8" height="8" transform="rotate(0,100,108)"/><rect x="112" y="104" width="8" height="8" transform="rotate(0,116,108)"/><rect x="128" y="104" width="8" height="8" transform="rotate(0,132,108)"/><rect x="136" y="104" width="8" height="8" transform="rotate(0,140,108)"/><rect x="144" y="104" width="8" height="8" transform="rotate(0,148,108)"/><rect x="152" y="104" width="8" height="8" transform="rotate(0,156,108)"/><rect x="168" y="104" width="8" height="8" transform="rotate(0,172,108)"/><rect x="176" y="104" width="8" height="8" transform="rotate(0,180,108)"/><rect x="184" y="104" width="8" height="8" transform="rotate(0,188,108)"/><rect x="192" y="104" width="8" height="8" transform="rotate(0,196,108)"/><rect x="200" y="104" width="8" height="8" transform="rotate(0,204,108)"/><rect x="216" y="104" width="8" height="8" transform="rotate(0,220,108)"/><rect x="224" y="104" width="8" height="8" transform="rotate(0,228,108)"/><rect x="264" y="104" width="8" height="8" transform="rotate(0,268,108)"/><rect x="16" y="112" width="8" height="8" transform="rotate(0,20,116)"/><rect x="24" y="112" width="8" height="8" transform="rotate(0,28,116)"/><rect x="48" y="112" width="8" height="8" transform="rotate(0,52,116)"/><rect x="64" y="112" width="8" height="8" transform="rotate(0,68,116)"/><rect x="72" y="112" width="8" height="8" transform="rotate(0,76,116)"/><rect x="80" y="112" width="8" height="8" transform="rotate(0,84,116)"/><rect x="88" y="112" width="8" height="8" transform="rotate(0,92,116)"/><rect x="104" y="112" width="8" height="8" transform="rotate(0,108,116)"/><rect x="112" y="112" width="8" height="8" transform="rotate(0,116,116)"/><rect x="120" y="112" width="8" height="8" transform="rotate(0,124,116)"/><rect x="128" y="112" width="8" height="8" transform="rotate(0,132,116)"/><rect x="160" y="112" width="8" height="8" transform="rotate(0,164,116)"/><rect x="184" y="112" width="8" height="8" transform="rotate(0,188,116)"/><rect x="224" y="112" width="8" height="8" transform="rotate(0,228,116)"/><rect x="248" y="112" width="8" height="8" transform="rotate(0,252,116)"/><rect x="8" y="120" width="8" height="8" transform="rotate(0,12,124)"/><rect x="16" y="120" width="8" height="8" transform="rotate(0,20,124)"/><rect x="24" y="120" width="8" height="8" transform="rotate(0,28,124)"/><rect x="56" y="120" width="8" height="8" transform="rotate(0,60,124)"/><rect x="72" y="120" width="8" height="8" transform="rotate(0,76,124)"/><rect x="80" y="120" width="8" height="8" transform="rotate(0,84,124)"/><rect x="88" y="120" width="8" height="8" transform="rotate(0,92,124)"/><rect x="104" y="120" width="8" height="8" transform="rotate(0,108,124)"/><rect x="112" y="120" width="8" height="8" transform="rotate(0,116,124)"/><rect x="152" y="120" width="8" height="8" transform="rotate(0,156,124)"/><rect x="176" y="120" width="8" height="8" transform="rotate(0,180,124)"/><rect x="192" y="120" width="8" height="8" transform="rotate(0,196,124)"/><rect x="200" y="120" width="8" height="8" transform="rotate(0,204,124)"/><rect x="216" y="120" width="8" height="8" transform="rotate(0,220,124)"/><rect x="224" y="120" width="8" height="8" transform="rotate(0,228,124)"/><rect x="240" y="120" width="8" height="8" transform="rotate(0,244,124)"/><rect x="16" y="128" width="8" height="8" transform="rotate(0,20,132)"/><rect x="24" y="128" width="8" height="8" transform="rotate(0,28,132)"/><rect x="32" y="128" width="8" height="8" transform="rotate(0,36,132)"/><rect x="48" y="128" width="8" height="8" transform="rotate(0,52,132)"/><rect x="72" y="128" width="8" height="8" transform="rotate(0,76,132)"/><rect x="80" y="128" width="8" height="8" transform="rotate(0,84,132)"/><rect x="96" y="128" width="8" height="8" transform="rotate(0,100,132)"/><rect x="104" y="128" width="8" height="8" transform="rotate(0,108,132)"/><rect x="112" y="128" width="8" height="8" transform="rotate(0,116,132)"/><rect x="120" y="128" width="8" height="8" transform="rotate(0,124,132)"/><rect x="136" y="128" width="8" height="8" transform="rotate(0,140,132)"/><rect x="144" y="128" width="8" height="8" transform="rotate(0,148,132)"/><rect x="160" y="128" width="8" height="8" transform="rotate(0,164,132)"/><rect x="192" y="128" width="8" height="8" transform="rotate(0,196,132)"/><rect x="208" y="128" width="8" height="8" transform="rotate(0,212,132)"/><rect x="224" y="128" width="8" height="8" transform="rotate(0,228,132)"/><rect x="240" y="128" width="8" height="8" transform="rotate(0,244,132)"/><rect x="248" y="128" width="8" height="8" transform="rotate(0,252,132)"/><rect x="264" y="128" width="8" height="8" transform="rotate(0,268,132)"/><rect x="16" y="136" width="8" height="8" transform="rotate(0,20,140)"/><rect x="24" y="136" width="8" height="8" transform="rotate(0,28,140)"/><rect x="56" y="136" width="8" height="8" transform="rotate(0,60,140)"/><rect x="64" y="136" width="8" height="8" transform="rotate(0,68,140)"/><rect x="72" y="136" width="8" height="8" transform="rotate(0,76,140)"/><rect x="96" y="136" width="8" height="8" transform="rotate(0,100,140)"/><rect x="104" y="136" width="8" height="8" transform="rotate(0,108,140)"/><rect x="128" y="136" width="8" height="8" transform="rotate(0,132,140)"/><rect x="136" y="136" width="8" height="8" transform="rotate(0,140,140)"/><rect x="160" y="136" width="8" height="8" transform="rotate(0,164,140)"/><rect x="168" y="136" width="8" height="8" transform="rotate(0,172,140)"/><rect x="200" y="136" width="8" height="8" transform="rotate(0,204,140)"/><rect x="208" y="136" width="8" height="8" transform="rotate(0,212,140)"/><rect x="216" y="136" width="8" height="8" transform="rotate(0,220,140)"/><rect x="224" y="136" width="8" height="8" transform="rotate(0,228,140)"/><rect x="232" y="136" width="8" height="8" transform="rotate(0,236,140)"/><rect x="240" y="136" width="8" height="8" transform="rotate(0,244,140)"/><rect x="24" y="144" width="8" height="8" transform="rotate(0,28,148)"/><rect x="48" y="144" width="8" height="8" transform="rotate(0,52,148)"/><rect x="64" y="144" width="8" height="8" transform="rotate(0,68,148)"/><rect x="72" y="144" width="8" height="8" transform="rotate(0,76,148)"/><rect x="96" y="144" width="8" height="8" transform="rotate(0,100,148)"/><rect x="128" y="144" width="8" height="8" transform="rotate(0,132,148)"/><rect x="144" y="144" width="8" height="8" transform="rotate(0,148,148)"/><rect x="160" y="144" width="8" height="8" transform="rotate(0,164,148)"/><rect x="176" y="144" width="8" height="8" transform="rotate(0,180,148)"/><rect x="184" y="144" width="8" height="8" transform="rotate(0,188,148)"/><rect x="208" y="144" width="8" height="8" transform="rotate(0,212,148)"/><rect x="216" y="144" width="8" height="8" transform="rotate(0,220,148)"/><rect x="232" y="144" width="8" height="8" transform="rotate(0,236,148)"/><rect x="248" y="144" width="8" height="8" transform="rotate(0,252,148)"/><rect x="256" y="144" width="8" height="8" transform="rotate(0,260,148)"/><rect x="264" y="144" width="8" height="8" transform="rotate(0,268,148)"/><rect x="8" y="152" width="8" height="8" transform="rotate(0,12,156)"/><rect x="16" y="152" width="8" height="8" transform="rotate(0,20,156)"/><rect x="24" y="152" width="8" height="8" transform="rotate(0,28,156)"/><rect x="32" y="152" width="8" height="8" transform="rotate(0,36,156)"/><rect x="56" y="152" width="8" height="8" transform="rotate(0,60,156)"/><rect x="64" y="152" width="8" height="8" transform="rotate(0,68,156)"/><rect x="72" y="152" width="8" height="8" transform="rotate(0,76,156)"/><rect x="88" y="152" width="8" height="8" transform="rotate(0,92,156)"/><rect x="96" y="152" width="8" height="8" transform="rotate(0,100,156)"/><rect x="104" y="152" width="8" height="8" transform="rotate(0,108,156)"/><rect x="112" y="152" width="8" height="8" transform="rotate(0,116,156)"/><rect x="128" y="152" width="8" height="8" transform="rotate(0,132,156)"/><rect x="144" y="152" width="8" height="8" transform="rotate(0,148,156)"/><rect x="152" y="152" width="8" height="8" transform="rotate(0,156,156)"/><rect x="160" y="152" width="8" height="8" transform="rotate(0,164,156)"/><rect x="168" y="152" width="8" height="8" transform="rotate(0,172,156)"/><rect x="192" y="152" width="8" height="8" transform="rotate(0,196,156)"/><rect x="208" y="152" width="8" height="8" transform="rotate(0,212,156)"/><rect x="216" y="152" width="8" height="8" transform="rotate(0,220,156)"/><rect x="224" y="152" width="8" height="8" transform="rotate(0,228,156)"/><rect x="240" y="152" width="8" height="8" transform="rotate(0,244,156)"/><rect x="248" y="152" width="8" height="8" transform="rotate(0,252,156)"/><rect x="264" y="152" width="8" height="8" transform="rotate(0,268,156)"/><rect x="16" y="160" width="8" height="8" transform="rotate(0,20,164)"/><rect x="24" y="160" width="8" height="8" transform="rotate(0,28,164)"/><rect x="40" y="160" width="8" height="8" transform="rotate(0,44,164)"/><rect x="48" y="160" width="8" height="8" transform="rotate(0,52,164)"/><rect x="96" y="160" width="8" height="8" transform="rotate(0,100,164)"/><rect x="112" y="160" width="8" height="8" transform="rotate(0,116,164)"/><rect x="128" y="160" width="8" height="8" transform="rotate(0,132,164)"/><rect x="136" y="160" width="8" height="8" transform="rotate(0,140,164)"/><rect x="152" y="160" width="8" height="8" transform="rotate(0,156,164)"/><rect x="176" y="160" width="8" height="8" transform="rotate(0,180,164)"/><rect x="208" y="160" width="8" height="8" transform="rotate(0,212,164)"/><rect x="216" y="160" width="8" height="8" transform="rotate(0,220,164)"/><rect x="232" y="160" width="8" height="8" transform="rotate(0,236,164)"/><rect x="240" y="160" width="8" height="8" transform="rotate(0,244,164)"/><rect x="248" y="160" width="8" height="8" transform="rotate(0,252,164)"/><rect x="256" y="160" width="8" height="8" transform="rotate(0,260,164)"/><rect x="24" y="168" width="8" height="8" transform="rotate(0,28,172)"/><rect x="32" y="168" width="8" height="8" transform="rotate(0,36,172)"/><rect x="48" y="168" width="8" height="8" transform="rotate(0,52,172)"/><rect x="56" y="168" width="8" height="8" transform="rotate(0,60,172)"/><rect x="80" y="168" width="8" height="8" transform="rotate(0,84,172)"/><rect x="128" y="168" width="8" height="8" transform="rotate(0,132,172)"/><rect x="168" y="168" width="8" height="8" transform="rotate(0,172,172)"/><rect x="176" y="168" width="8" height="8" transform="rotate(0,180,172)"/><rect x="192" y="168" width="8" height="8" transform="rotate(0,196,172)"/><rect x="200" y="168" width="8" height="8" transform="rotate(0,204,172)"/><rect x="224" y="168" width="8" height="8" transform="rotate(0,228,172)"/><rect x="240" y="168" width="8" height="8" transform="rotate(0,244,172)"/><rect x="264" y="168" width="8" height="8" transform="rotate(0,268,172)"/><rect x="8" y="176" width="8" height="8" transform="rotate(0,12,180)"/><rect x="40" y="176" width="8" height="8" transform="rotate(0,44,180)"/><rect x="72" y="176" width="8" height="8" transform="rotate(0,76,180)"/><rect x="80" y="176" width="8" height="8" transform="rotate(0,84,180)"/><rect x="96" y="176" width="8" height="8" transform="rotate(0,100,180)"/><rect x="136" y="176" width="8" height="8" transform="rotate(0,140,180)"/><rect x="144" y="176" width="8" height="8" transform="rotate(0,148,180)"/><rect x="168" y="176" width="8" height="8" transform="rotate(0,172,180)"/><rect x="176" y="176" width="8" height="8" transform="rotate(0,180,180)"/><rect x="184" y="176" width="8" height="8" transform="rotate(0,188,180)"/><rect x="200" y="176" width="8" height="8" transform="rotate(0,204,180)"/><rect x="208" y="176" width="8" height="8" transform="rotate(0,212,180)"/><rect x="232" y="176" width="8" height="8" transform="rotate(0,236,180)"/><rect x="248" y="176" width="8" height="8" transform="rotate(0,252,180)"/><rect x="8" y="184" width="8" height="8" transform="rotate(0,12,188)"/><rect x="32" y="184" width="8" height="8" transform="rotate(0,36,188)"/><rect x="40" y="184" width="8" height="8" transform="rotate(0,44,188)"/><rect x="48" y="184" width="8" height="8" transform="rotate(0,52,188)"/><rect x="56" y="184" width="8" height="8" transform="rotate(0,60,188)"/><rect x="96" y="184" width="8" height="8" transform="rotate(0,100,188)"/><rect x="104" y="184" width="8" height="8" transform="rotate(0,108,188)"/><rect x="112" y="184" width="8" height="8" transform="rotate(0,116,188)"/><rect x="128" y="184" width="8" height="8" transform="rotate(0,132,188)"/><rect x="136" y="184" width="8" height="8" transform="rotate(0,140,188)"/><rect x="152" y="184" width="8" height="8" transform="rotate(0,156,188)"/><rect x="176" y="184" width="8" height="8" transform="rotate(0,180,188)"/><rect x="184" y="184" width="8" height="8" transform="rotate(0,188,188)"/><rect x="192" y="184" width="8" height="8" transform="rotate(0,196,188)"/><rect x="216" y="184" width="8" height="8" transform="rotate(0,220,188)"/><rect x="224" y="184" width="8" height="8" transform="rotate(0,228,188)"/><rect x="248" y="184" width="8" height="8" transform="rotate(0,252,188)"/><rect x="256" y="184" width="8" height="8" transform="rotate(0,260,188)"/><rect x="264" y="184" width="8" height="8" transform="rotate(0,268,188)"/><rect x="8" y="192" width="8" height="8" transform="rotate(0,12,196)"/><rect x="24" y="192" width="8" height="8" transform="rotate(0,28,196)"/><rect x="64" y="192" width="8" height="8" transform="rotate(0,68,196)"/><rect x="72" y="192" width="8" height="8" transform="rotate(0,76,196)"/><rect x="80" y="192" width="8" height="8" transform="rotate(0,84,196)"/><rect x="88" y="192" width="8" height="8" transform="rotate(0,92,196)"/><rect x="96" y="192" width="8" height="8" transform="rotate(0,100,196)"/><rect x="104" y="192" width="8" height="8" transform="rotate(0,108,196)"/><rect x="112" y="192" width="8" height="8" transform="rotate(0,116,196)"/><rect x="136" y="192" width="8" height="8" transform="rotate(0,140,196)"/><rect x="152" y="192" width="8" height="8" transform="rotate(0,156,196)"/><rect x="208" y="192" width="8" height="8" transform="rotate(0,212,196)"/><rect x="224" y="192" width="8" height="8" transform="rotate(0,228,196)"/><rect x="248" y="192" width="8" height="8" transform="rotate(0,252,196)"/><rect x="264" y="192" width="8" height="8" transform="rotate(0,268,196)"/><rect x="8" y="200" width="8" height="8" transform="rotate(0,12,204)"/><rect x="16" y="200" width="8" height="8" transform="rotate(0,20,204)"/><rect x="24" y="200" width="8" height="8" transform="rotate(0,28,204)"/><rect x="40" y="200" width="8" height="8" transform="rotate(0,44,204)"/><rect x="48" y="200" width="8" height="8" transform="rotate(0,52,204)"/><rect x="56" y="200" width="8" height="8" transform="rotate(0,60,204)"/><rect x="64" y="200" width="8" height="8" transform="rotate(0,68,204)"/><rect x="72" y="200" width="8" height="8" transform="rotate(0,76,204)"/><rect x="88" y="200" width="8" height="8" transform="rotate(0,92,204)"/><rect x="104" y="200" width="8" height="8" transform="rotate(0,108,204)"/><rect x="112" y="200" width="8" height="8" transform="rotate(0,116,204)"/><rect x="120" y="200" width="8" height="8" transform="rotate(0,124,204)"/><rect x="160" y="200" width="8" height="8" transform="rotate(0,164,204)"/><rect x="168" y="200" width="8" height="8" transform="rotate(0,172,204)"/><rect x="200" y="200" width="8" height="8" transform="rotate(0,204,204)"/><rect x="208" y="200" width="8" height="8" transform="rotate(0,212,204)"/><rect x="216" y="200" width="8" height="8" transform="rotate(0,220,204)"/><rect x="224" y="200" width="8" height="8" transform="rotate(0,228,204)"/><rect x="232" y="200" width="8" height="8" transform="rotate(0,236,204)"/><rect x="240" y="200" width="8" height="8" transform="rotate(0,244,204)"/><rect x="256" y="200" width="8" height="8" transform="rotate(0,260,204)"/><rect x="264" y="200" width="8" height="8" transform="rotate(0,268,204)"/><rect x="72" y="208" width="8" height="8" transform="rotate(0,76,212)"/><rect x="80" y="208" width="8" height="8" transform="rotate(0,84,212)"/><rect x="96" y="208" width="8" height="8" transform="rotate(0,100,212)"/><rect x="104" y="208" width="8" height="8" transform="rotate(0,108,212)"/><rect x="112" y="208" width="8" height="8" transform="rotate(0,116,212)"/><rect x="136" y="208" width="8" height="8" transform="rotate(0,140,212)"/><rect x="152" y="208" width="8" height="8" transform="rotate(0,156,212)"/><rect x="200" y="208" width="8" height="8" transform="rotate(0,204,212)"/><rect x="232" y="208" width="8" height="8" transform="rotate(0,236,212)"/><rect x="248" y="208" width="8" height="8" transform="rotate(0,252,212)"/><rect x="256" y="208" width="8" height="8" transform="rotate(0,260,212)"/><rect x="96" y="216" width="8" height="8" transform="rotate(0,100,220)"/><rect x="112" y="216" width="8" height="8" transform="rotate(0,116,220)"/><rect x="128" y="216" width="8" height="8" transform="rotate(0,132,220)"/><rect x="136" y="216" width="8" height="8" transform="rotate(0,140,220)"/><rect x="144" y="216" width="8" height="8" transform="rotate(0,148,220)"/><rect x="160" y="216" width="8" height="8" transform="rotate(0,164,220)"/><rect x="168" y="216" width="8" height="8" transform="rotate(0,172,220)"/><rect x="176" y="216" width="8" height="8" transform="rotate(0,180,220)"/><rect x="184" y="216" width="8" height="8" transform="rotate(0,188,220)"/><rect x="192" y="216" width="8" height="8" transform="rotate(0,196,220)"/><rect x="200" y="216" width="8" height="8" transform="rotate(0,204,220)"/><rect x="216" y="216" width="8" height="8" transform="rotate(0,220,220)"/><rect x="232" y="216" width="8" height="8" transform="rotate(0,236,220)"/><rect x="248" y="216" width="8" height="8" transform="rotate(0,252,220)"/><rect x="72" y="224" width="8" height="8" transform="rotate(0,76,228)"/><rect x="80" y="224" width="8" height="8" transform="rotate(0,84,228)"/><rect x="88" y="224" width="8" height="8" transform="rotate(0,92,228)"/><rect x="96" y="224" width="8" height="8" transform="rotate(0,100,228)"/><rect x="136" y="224" width="8" height="8" transform="rotate(0,140,228)"/><rect x="144" y="224" width="8" height="8" transform="rotate(0,148,228)"/><rect x="200" y="224" width="8" height="8" transform="rotate(0,204,228)"/><rect x="232" y="224" width="8" height="8" transform="rotate(0,236,228)"/><rect x="240" y="224" width="8" height="8" transform="rotate(0,244,228)"/><rect x="248" y="224" width="8" height="8" transform="rotate(0,252,228)"/><rect x="256" y="224" width="8" height="8" transform="rotate(0,260,228)"/><rect x="72" y="232" width="8" height="8" transform="rotate(0,76,236)"/><rect x="80" y="232" width="8" height="8" transform="rotate(0,84,236)"/><rect x="88" y="232" width="8" height="8" transform="rotate(0,92,236)"/><rect x="96" y="232" width="8" height="8" transform="rotate(0,100,236)"/><rect x="104" y="232" width="8" height="8" transform="rotate(0,108,236)"/><rect x="112" y="232" width="8" height="8" transform="rotate(0,116,236)"/><rect x="120" y="232" width="8" height="8" transform="rotate(0,124,236)"/><rect x="144" y="232" width="8" height="8" transform="rotate(0,148,236)"/><rect x="152" y="232" width="8" height="8" transform="rotate(0,156,236)"/><rect x="168" y="232" width="8" height="8" transform="rotate(0,172,236)"/><rect x="176" y="232" width="8" height="8" transform="rotate(0,180,236)"/><rect x="192" y="232" width="8" height="8" transform="rotate(0,196,236)"/><rect x="200" y="232" width="8" height="8" transform="rotate(0,204,236)"/><rect x="208" y="232" width="8" height="8" transform="rotate(0,212,236)"/><rect x="216" y="232" width="8" height="8" transform="rotate(0,220,236)"/><rect x="224" y="232" width="8" height="8" transform="rotate(0,228,236)"/><rect x="232" y="232" width="8" height="8" transform="rotate(0,236,236)"/><rect x="256" y="232" width="8" height="8" transform="rotate(0,260,236)"/><rect x="72" y="240" width="8" height="8" transform="rotate(0,76,244)"/><rect x="80" y="240" width="8" height="8" transform="rotate(0,84,244)"/><rect x="88" y="240" width="8" height="8" transform="rotate(0,92,244)"/><rect x="96" y="240" width="8" height="8" transform="rotate(0,100,244)"/><rect x="104" y="240" width="8" height="8" transform="rotate(0,108,244)"/><rect x="112" y="240" width="8" height="8" transform="rotate(0,116,244)"/><rect x="120" y="240" width="8" height="8" transform="rotate(0,124,244)"/><rect x="136" y="240" width="8" height="8" transform="rotate(0,140,244)"/><rect x="152" y="240" width="8" height="8" transform="rotate(0,156,244)"/><rect x="168" y="240" width="8" height="8" transform="rotate(0,172,244)"/><rect x="192" y="240" width="8" height="8" transform="rotate(0,196,244)"/><rect x="208" y="240" width="8" height="8" transform="rotate(0,212,244)"/><rect x="224" y="240" width="8" height="8" transform="rotate(0,228,244)"/><rect x="240" y="240" width="8" height="8" transform="rotate(0,244,244)"/><rect x="264" y="240" width="8" height="8" transform="rotate(0,268,244)"/><rect x="80" y="248" width="8" height="8" transform="rotate(0,84,252)"/><rect x="112" y="248" width="8" height="8" transform="rotate(0,116,252)"/><rect x="120" y="248" width="8" height="8" transform="rotate(0,124,252)"/><rect x="128" y="248" width="8" height="8" transform="rotate(0,132,252)"/><rect x="144" y="248" width="8" height="8" transform="rotate(0,148,252)"/><rect x="152" y="248" width="8" height="8" transform="rotate(0,156,252)"/><rect x="168" y="248" width="8" height="8" transform="rotate(0,172,252)"/><rect x="192" y="248" width="8" height="8" transform="rotate(0,196,252)"/><rect x="200" y="248" width="8" height="8" transform="rotate(0,204,252)"/><rect x="224" y="248" width="8" height="8" transform="rotate(0,228,252)"/><rect x="232" y="248" width="8" height="8" transform="rotate(0,236,252)"/><rect x="248" y="248" width="8" height="8" transform="rotate(0,252,252)"/><rect x="256" y="248" width="8" height="8" transform="rotate(0,260,252)"/><rect x="264" y="248" width="8" height="8" transform="rotate(0,268,252)"/><rect x="72" y="256" width="8" height="8" transform="rotate(0,76,260)"/><rect x="80" y="256" width="8" height="8" transform="rotate(0,84,260)"/><rect x="112" y="256" width="8" height="8" transform="rotate(0,116,260)"/><rect x="120" y="256" width="8" height="8" transform="rotate(0,124,260)"/><rect x="136" y="256" width="8" height="8" transform="rotate(0,140,260)"/><rect x="144" y="256" width="8" height="8" transform="rotate(0,148,260)"/><rect x="184" y="256" width="8" height="8" transform="rotate(0,188,260)"/><rect x="208" y="256" width="8" height="8" transform="rotate(0,212,260)"/><rect x="216" y="256" width="8" height="8" transform="rotate(0,220,260)"/><rect x="224" y="256" width="8" height="8" transform="rotate(0,228,260)"/><rect x="232" y="256" width="8" height="8" transform="rotate(0,236,260)"/><rect x="240" y="256" width="8" height="8" transform="rotate(0,244,260)"/><rect x="248" y="256" width="8" height="8" transform="rotate(0,252,260)"/><rect x="256" y="256" width="8" height="8" transform="rotate(0,260,260)"/><rect x="264" y="256" width="8" height="8" transform="rotate(0,268,260)"/><rect x="80" y="264" width="8" height="8" transform="rotate(0,84,268)"/><rect x="88" y="264" width="8" height="8" transform="rotate(0,92,268)"/><rect x="96" y="264" width="8" height="8" transform="rotate(0,100,268)"/><rect x="104" y="264" width="8" height="8" transform="rotate(0,108,268)"/><rect x="112" y="264" width="8" height="8" transform="rotate(0,116,268)"/><rect x="136" y="264" width="8" height="8" transform="rotate(0,140,268)"/><rect x="144" y="264" width="8" height="8" transform="rotate(0,148,268)"/><rect x="152" y="264" width="8" height="8" transform="rotate(0,156,268)"/><rect x="200" y="264" width="8" height="8" transform="rotate(0,204,268)"/><rect x="208" y="264" width="8" height="8" transform="rotate(0,212,268)"/><rect x="224" y="264" width="8" height="8" transform="rotate(0,228,268)"/><rect x="232" y="264" width="8" height="8" transform="rotate(0,236,268)"/></clipPath><linearGradient id="dot-color-1" gradientUnits="userSpaceOnUse" x1="0" y1="280" x2="280" y2="0"><stop offset="0%" stop-color="#1B1812"/><stop offset="100%" stop-color="#2C4A8A"/></linearGradient><clipPath id="clip-path-corners-square-color-0-0-1"><path clip-rule="evenodd" d="M 8 8v 56h 56v -56zM 16 16h 40v 40h -40z" transform="rotate(0,36,36)"/></clipPath><linearGradient id="corners-square-color-0-0-1" gradientUnits="userSpaceOnUse" x1="8" y1="64" x2="64" y2="8"><stop offset="0%" stop-color="#1B1812"/><stop offset="100%" stop-color="#2C4A8A"/></linearGradient><clipPath id="clip-path-corners-dot-color-0-0-1"><rect x="24" y="24" width="24" height="24" transform="rotate(0,36,36)"/></clipPath><linearGradient id="corners-dot-color-0-0-1" gradientUnits="userSpaceOnUse" x1="24" y1="48" x2="48" y2="24"><stop offset="0%" stop-color="#1B1812"/><stop offset="100%" stop-color="#2C4A8A"/></linearGradient><clipPath id="clip-path-corners-square-color-1-0-1"><path clip-rule="evenodd" d="M 216 8v 56h 56v -56zM 224 16h 40v 40h -40z" transform="rotate(90,244,36)"/></clipPath><linearGradient id="corners-square-color-1-0-1" gradientUnits="userSpaceOnUse" x1="216" y1="8" x2="272" y2="64"><stop offset="0%" stop-color="#1B1812"/><stop offset="100%" stop-color="#2C4A8A"/></linearGradient><clipPath id="clip-path-corners-dot-color-1-0-1"><rect x="232" y="24" width="24" height="24" transform="rotate(90,244,36)"/></clipPath><linearGradient id="corners-dot-color-1-0-1" gradientUnits="userSpaceOnUse" x1="232" y1="24" x2="256" y2="48"><stop offset="0%" stop-color="#1B1812"/><stop offset="100%" stop-color="#2C4A8A"/></linearGradient><clipPath id="clip-path-corners-square-color-0-1-1"><path clip-rule="evenodd" d="M 8 216v 56h 56v -56zM 16 224h 40v 40h -40z" transform="rotate(-90,36,244)"/></clipPath><linearGradient id="corners-square-color-0-1-1" gradientUnits="userSpaceOnUse" x1="64" y1="272" x2="8" y2="216"><stop offset="0%" stop-color="#1B1812"/><stop offset="100%" stop-color="#2C4A8A"/></linearGradient><clipPath id="clip-path-corners-dot-color-0-1-1"><rect x="24" y="232" width="24" height="24" transform="rotate(-90,36,244)"/></clipPath><linearGradient id="corners-dot-color-0-1-1" gradientUnits="userSpaceOnUse" x1="48" y1="256" x2="24" y2="232"><stop offset="0%" stop-color="#1B1812"/><stop offset="100%" stop-color="#2C4A8A"/></linearGradient></defs><rect x="0" y="0" height="280" width="280" clip-path="url('#clip-path-background-color-1')" fill="#FFFFFF"/><rect x="0" y="0" height="280" width="280" clip-path="url('#clip-path-dot-color-1')" fill="url('#dot-color-1')"/><rect x="8" y="8" height="56" width="56" clip-path="url('#clip-path-corners-square-color-0-0-1')" fill="url('#corners-square-color-0-0-1')"/><rect x="24" y="24" height="24" width="24" clip-path="url('#clip-path-corners-dot-color-0-0-1')" fill="url('#corners-dot-color-0-0-1')"/><rect x="216" y="8" height="56" width="56" clip-path="url('#clip-path-corners-square-color-1-0-1')" fill="url('#corners-square-color-1-0-1')"/><rect x="232" y="24" height="24" width="24" clip-path="url('#clip-path-corners-dot-color-1-0-1')" fill="url('#corners-dot-color-1-0-1')"/><rect x="8" y="216" height="56" width="56" clip-path="url('#clip-path-corners-square-color-0-1-1')" fill="url('#corners-square-color-0-1-1')"/><rect x="24" y="232" height="24" width="24" clip-path="url('#clip-path-corners-dot-color-0-1-1')" fill="url('#corners-dot-color-0-1-1')"/></svg>