<?xml version="1.0" standalone="no"?>
<svg xmlns="http://www.w3.org/2000/svg" width="280" height="280" xmlns:xlink="http://www.w3.org/1999/xlink" viewBox="0 0 280 280"><defs><clipPath id="clip-path-background-color-3"><rect x="0" y="0" width="280" height="280"/></clipPath><clipPath id="clip-path-dot-color-3"><rect x="95" y="41" width="6" height="6" transform="rotate(0,98,44)"/><rect x="101" y="41" width="6" height="6" transform="rotate(0,104,44)"/><rect x="119" y="41" width="6" height="6" transform="rotate(0,122,44)"/><rect x="137" y="41" width="6" height="6" transform="rotate(0,140,44)"/><rect x="173" y="41" width="6" height="6" transform="rotate(0,176,44)"/><rect x="89" y="47" width="6" height="6" transform="rotate(0,92,50)"/><rect x="113" y="47" width="6" height="6" transform="rotate(0,116,50)"/><rect x="119" y="47" width="6" height="6" transform="rotate(0,122,50)"/><rect x="125" y="47" width="6" height="6" transform="rotate(0,128,50)"/><rect x="137" y="47" width="6" height="6" transform="rotate(0,140,50)"/><rect x="143" y="47" width="6" height="6" transform="rotate(0,146,50)"/><rect x="155" y="47" width="6" height="6" transform="rotate(0,158,50)"/><rect x="161" y="47" width="6" height="6" transform="rotate(0,164,50)"/><rect x="167" y="47" width="6" height="6" transform="rotate(0,170,50)"/><rect x="173" y="47" width="6" height="6" transform="rotate(0,176,50)"/><rect x="113" y="53" width="6" height="6" transform="rotate(0,116,56)"/><rect x="119" y="53" width="6" height="6" transform="rotate(0,122,56)"/><rect x="143" y="53" width="6" height="6" transform="rotate(0,146,56)"/><rect x="149" y="53" width="6" height="6" transform="rotate(0,152,56)"/><rect x="161" y="53" width="6" height="6" transform="rotate(0,164,56)"/><rect x="173" y="53" width="6" height="6" transform="rotate(0,176,56)"/><rect x="179" y="53" width="6" height="6" transform="rotate(0,182,56)"/><rect x="89" y="59" width="6" height="6" transform="rotate(0,92,62)"/><rect x="95" y="59" width="6" height="6" transform="rotate(0,98,62)"/><rect x="101" y="59" width="6" height="6" transform="rotate(0,104,62)"/><rect x="107" y="59" width="6" height="6" transform="rotate(0,110,62)"/><rect x="131" y="59" width="6" height="6" transform="rotate(0,134,62)"/><rect x="137" y="59" width="6" height="6" transform="rotate(0,140,62)"/><rect x="179" y="59" width="6" height="6" transform="rotate(0,182,62)"/><rect x="89" y="65" width="6" height="6" transform="rotate(0,92,68)"/><rect x="101" y="65" width="6" height="6" transform="rotate(0,104,68)"/><rect x="107" y="65" width="6" height="6" transform="rotate(0,110,68)"/><rect x="113" y="65" width="6" height="6" transform="rotate(0,116,68)"/><rect x="119" y="65" width="6" height="6" transform="rotate(0,122,68)"/><rect x="137" y="65" width="6" height="6" transform="rotate(0,140,68)"/><rect x="143" y="65" width="6" height="6" transform="rotate(0,146,68)"/><rect x="149" y="65" width="6" height="6" transform="rotate(0,152,68)"/><rect x="161" y="65" width="6" height="6" transform="rotate(0,164,68)"/><rect x="167" y="65" width="6" height="6" transform="rotate(0,170,68)"/><rect x="179" y="65" width="6" height="6" transform="rotate(0,182,68)"/><rect x="185" y="65" width="6" height="6" transform="rotate(0,188,68)"/><rect x="95" y="71" width="6" height="6" transform="rotate(0,98,74)"/><rect x="113" y="71" width="6" height="6" transform="rotate(0,116,74)"/><rect x="137" y="71" width="6" height="6" transform="rotate(0,140,74)"/><rect x="149" y="71" width="6" height="6" transform="rotate(0,152,74)"/><rect x="161" y="71" width="6" height="6" transform="rotate(0,164,74)"/><rect x="179" y="71" width="6" height="6" transform="rotate(0,182,74)"/><rect x="89" y="77" width="6" height="6" transform="rotate(0,92,80)"/><rect x="101" y="77" width="6" height="6" transform="rotate(0,104,80)"/><rect x="113" y="77" width="6" height="6" transform="rotate(0,116,80)"/><rect x="125" y="77" width="6" height="6" transform="rotate(0,128,80)"/><rect x="137" y="77" width="6" height="6" transform="rotate(0,140,80)"/><rect x="149" y="77" width="6" height="6" transform="rotate(0,152,80)"/><rect x="161" y="77" width="6" height="6" transform="rotate(0,164,80)"/><rect x="173" y="77" width="6" height="6" transform="rotate(0,176,80)"/><rect x="185" y="77" width="6" height="6" transform="rotate(0,188,80)"/><rect x="89" y="83" width="6" height="6" transform="rotate(0,92,86)"/><rect x="95" y="83" width="6" height="6" transform="rotate(0,98,86)"/><rect x="125" y="83" width="6" height="6" transform="rotate(0,128,86)"/><rect x="149" y="83" width="6" height="6" transform="rotate(0,152,86)"/><rect x="155" y="83" width="6" height="6" transform="rotate(0,158,86)"/><rect x="161" y="83" width="6" height="6" transform="rotate(0,164,86)"/><rect x="185" y="83" width="6" height="6" transform="rotate(0,188,86)"/><rect x="47" y="89" width="6" height="6" transform="rotate(0,50,92)"/><rect x="59" y="89" width="6" height="6" transform="rotate(0,62,92)"/><rect x="65" y="89" width="6" height="6" transform="rotate(0,68,92)"/><rect x="71" y="89" width="6" height="6" transform="rotate(0,74,92)"/><rect x="77" y="89" width="6" height="6" transform="rotate(0,80,92)"/><rect x="89" y="89" width="6" height="6" transform="rotate(0,92,92)"/><rect x="101" y="89" width="6" height="6" transform="rotate(0,104,92)"/><rect x="119" y="89" width="6" height="6" transform="rotate(0,122,92)"/><rect x="125" y="89" width="6" height="6" transform="rotate(0,128,92)"/><rect x="131" y="89" width="6" height="6" transform="rotate(0,134,92)"/><rect x="143" y="89" width="6" height="6" transform="rotate(0,146,92)"/><rect x="155" y="89" width="6" height="6" transform="rotate(0,158,92)"/><rect x="185" y="89" width="6" height="6" transform="rotate(0,188,92)"/><rect x="191" y="89" width="6" height="6" transform="rotate(0,194,92)"/><rect x="197" y="89" width="6" height="6" transform="rotate(0,200,92)"/><rect x="209" y="89" width="6" height="6" transform="rotate(0,212,92)"/><rect x="215" y="89" width="6" height="6" transform="rotate(0,218,92)"/><rect x="227" y="89" width="6" height="6" transform="rotate(0,230,92)"/><rect x="41" y="95" width="6" height="6" transform="rotate(0,44,98)"/><rect x="53" y="95" width="6" height="6" transform="rotate(0,56,98)"/><rect x="59" y="95" width="6" height="6" transform="rotate(0,62,98)"/><rect x="71" y="95" width="6" height="6" transform="rotate(0,74,98)"/><rect x="119" y="95" width="6" height="6" transform="rotate(0,122,98)"/><rect x="125" y="95" width="6" height="6" transform="rotate(0,128,98)"/><rect x="131" y="95" width="6" height="6" transform="rotate(0,134,98)"/><rect x="149" y="95" width="6" height="6" transform="rotate(0,152,98)"/><rect x="155" y="95" width="6" height="6" transform="rotate(0,158,98)"/><rect x="173" y="95" width="6" height="6" transform="rotate(0,176,98)"/><rect x="179" y="95" width="6" height="6" transform="rotate(0,182,98)"/><rect x="209" y="95" width="6" height="6" transform="rotate(0,212,98)"/><rect x="215" y="95" width="6" height="6" transform="rotate(0,218,98)"/><rect x="221" y="95" width="6" height="6" transform="rotate(0,224,98)"/><rect x="227" y="95" width="6" height="6" transform="rotate(0,230,98)"/><rect x="41" y="101" width="6" height="6" transform="rotate(0,44,104)"/><rect x="47" y="101" width="6" height="6" transform="rotate(0,50,104)"/><rect x="71" y="101" width="6" height="6" transform="rotate(0,74,104)"/><rect x="77" y="101" width="6" height="6" transform="rotate(0,80,104)"/><rect x="83" y="101" width="6" height="6" transform="rotate(0,86,104)"/><rect x="107" y="101" width="6" height="6" transform="rotate(0,110,104)"/><rect x="119" y="101" width="6" height="6" transform="rotate(0,122,104)"/><rect x="125" y="101" width="6" height="6" transform="rotate(0,128,104)"/><rect x="131" y="101" width="6" height="6" transform="rotate(0,134,104)"/><rect x="137" y="101" width="6" height="6" transform="rotate(0,140,104)"/><rect x="143" y="101" width="6" height="6" transform="rotate(0,146,104)"/><rect x="149" y="101" width="6" height="6" transform="rotate(0,152,104)"/><rect x="161" y="101" width="6" height="6" transform="rotate(0,164,104)"/><rect x="167" y="101" width="6" height="6" transform="rotate(0,170,104)"/><rect x="179" y="101" width="6" height="6" transform="rotate(0,182,104)"/><rect x="197" y="101" width="6" height="6" transform="rotate(0,200,104)"/><rect x="209" y="101" width="6" height="6" transform="rotate(0,212,104)"/><rect x="215" y="101" width="6" height="6" transform="rotate(0,218,104)"/><rect x="221" y="101" width="6" height="6" transform="rotate(0,224,104)"/><rect x="227" y="101" width="6" height="6" transform="rotate(0,230,104)"/><rect x="233" y="101" width="6" height="6" transform="rotate(0,236,104)"/><rect x="41" y="107" width="6" height="6" transform="rotate(0,44,110)"/><rect x="47" y="107" width="6" height="6" transform="rotate(0,50,110)"/><rect x="53" y="107" width="6" height="6" transform="rotate(0,56,110)"/><rect x="65" y="107" width="6" height="6" transform="rotate(0,68,110)"/><rect x="89" y="107" width="6" height="6" transform="rotate(0,92,110)"/><rect x="95" y="107" width="6" height="6" transform="rotate(0,98,110)"/><rect x="101" y="107" width="6" height="6" transform="rotate(0,104,110)"/><rect x="107" y="107" width="6" height="6" transform="rotate(0,110,110)"/><rect x="131" y="107" width="6" height="6" transform="rotate(0,134,110)"/><rect x="143" y="107" width="6" height="6" transform="rotate(0,146,110)"/><rect x="155" y="107" width="6" height="6" transform="rotate(0,158,110)"/><rect x="161" y="107" width="6" height="6" transform="rotate(0,164,110)"/><rect x="185" y="107" width="6" height="6" transform="rotate(0,188,110)"/><rect x="191" y="107" width="6" height="6" transform="rotate(0,194,110)"/><rect x="203" y="107" width="6" height="6" transform="rotate(0,206,110)"/><rect x="221" y="107" width="6" height="6" transform="rotate(0,224,110)"/><rect x="47" y="113" width="6" height="6" transform="rotate(0,50,116)"/><rect x="53" y="113" width="6" height="6" transform="rotate(0,56,116)"/><rect x="59" y="113" width="6" height="6" transform="rotate(0,62,116)"/><rect x="65" y="113" width="6" height="6" transform="rotate(0,68,116)"/><rect x="77" y="113" width="6" height="6" transform="rotate(0,80,116)"/><rect x="89" y="113" width="6" height="6" transform="rotate(0,92,116)"/><rect x="107" y="113" width="6" height="6" transform="rotate(0,110,116)"/><rect x="119" y="113" width="6" height="6" transform="rotate(0,122,116)"/><rect x="131" y="113" width="6" height="6" transform="rotate(0,134,116)"/><rect x="137" y="113" width="6" height="6" transform="rotate(0,140,116)"/><rect x="143" y="113" width="6" height="6" transform="rotate(0,146,116)"/><rect x="149" y="113" width="6" height="6" transform="rotate(0,152,116)"/><rect x="161" y="113" width="6" height="6" transform="rotate(0,164,116)"/><rect x="167" y="113" width="6" height="6" transform="rotate(0,170,116)"/><rect x="173" y="113" width="6" height="6" transform="rotate(0,176,116)"/><rect x="179" y="113" width="6" height="6" transform="rotate(0,182,116)"/><rect x="185" y="113" width="6" height="6" transform="rotate(0,188,116)"/><rect x="197" y="113" width="6" height="6" transform="rotate(0,200,116)"/><rect x="203" y="113" width="6" height="6" transform="rotate(0,206,116)"/><rect x="233" y="113" width="6" height="6" transform="rotate(0,236,116)"/><rect x="47" y="119" width="6" height="6" transform="rotate(0,50,122)"/><rect x="53" y="119" width="6" height="6" transform="rotate(0,56,122)"/><rect x="71" y="119" width="6" height="6" transform="rotate(0,74,122)"/><rect x="83" y="119" width="6" height="6" transform="rotate(0,86,122)"/><rect x="89" y="119" width="6" height="6" transform="rotate(0,92,122)"/><rect x="95" y="119" width="6" height="6" transform="rotate(0,98,122)"/><rect x="101" y="119" width="6" height="6" transform="rotate(0,104,122)"/><rect x="113" y="119" width="6" height="6" transform="rotate(0,116,122)"/><rect x="119" y="119" width="6" height="6" transform="rotate(0,122,122)"/><rect x="125" y="119" width="6" height="6" transform="rotate(0,128,122)"/><rect x="131" y="119" width="6" height="6" transform="rotate(0,134,122)"/><rect x="155" y="119" width="6" height="6" transform="rotate(0,158,122)"/><rect x="173" y="119" width="6" height="6" transform="rotate(0,176,122)"/><rect x="203" y="119" width="6" height="6" transform="rotate(0,206,122)"/><rect x="221" y="119" width="6" height="6" transform="rotate(0,224,122)"/><rect x="41" y="125" width="6" height="6" transform="rotate(0,44,128)"/><rect x="47" y="125" width="6" height="6" transform="rotate(0,50,128)"/><rect x="53" y="125" width="6" height="6" transform="rotate(0,56,128)"/><rect x="77" y="125" width="6" height="6" transform="rotate(0,80,128)"/><rect x="89" y="125" width="6" height="6" transform="rotate(0,92,128)"/><rect x="95" y="125" width="6" height="6" transform="rotate(0,98,128)"/><rect x="101" y="125" width="6" height="6" transform="rotate(0,104,128)"/><rect x="113" y="125" width="6" height="6" transform="rotate(0,116,128)"/><rect x="119" y="125" width="6" height="6" transform="rotate(0,122,128)"/><rect x="149" y="125" width="6" height="6" transform="rotate(0,152,128)"/><rect x="167" y="125" width="6" height="6" transform="rotate(0,170,128)"/><rect x="179" y="125" width="6" height="6" transform="rotate(0,182,128)"/><rect x="185" y="125" width="6" height="6" transform="rotate(0,188,128)"/><rect x="197" y="125" width="6" height="6" transform="rotate(0,200,128)"/><rect x="203" y="125" width="6" height="6" transform="rotate(0,206,128)"/><rect x="215" y="125" width="6" height="6" transform="rotate(0,218,128)"/><rect x="47" y="131" width="6" height="6" transform="rotate(0,50,134)"/><rect x="53" y="131" width="6" height="6" transform="rotate(0,56,134)"/><rect x="59" y="131" width="6" height="6" transform="rotate(0,62,134)"/><rect x="71" y="131" width="6" height="6" transform="rotate(0,74,134)"/><rect x="89" y="131" width="6" height="6" transform="rotate(0,92,134)"/><rect x="95" y="131" width="6" height="6" transform="rotate(0,98,134)"/><rect x="107" y="131" width="6" height="6" transform="rotate(0,110,134)"/><rect x="113" y="131" width="6" height="6" transform="rotate(0,116,134)"/><rect x="119" y="131" width="6" height="6" transform="rotate(0,122,134)"/><rect x="125" y="131" width="6" height="6" transform="rotate(0,128,134)"/><rect x="137" y="131" width="6" height="6" transform="rotate(0,140,134)"/><rect x="143" y="131" width="6" height="6" transform="rotate(0,146,134)"/><rect x="155" y="131" width="6" height="6" transform="rotate(0,158,134)"/><rect x="179" y="131" width="6" height="6" transform="rotate(0,182,134)"/><rect x="191" y="131" width="6" height="6" transform="rotate(0,194,134)"/><rect x="203" y="131" width="6" height="6" transform="rotate(0,206,134)"/><rect x="215" y="131" width="6" height="6" transform="rotate(0,218,134)"/><rect x="221" y="131" width="6" height="6" transform="rotate(0,224,134)"/><rect x="233" y="131" width="6" height="6" transform="rotate(0,236,134)"/><rect x="47" y="137" width="6" height="6" transform="rotate(0,50,140)"/><rect x="53" y="137" width="6" height="6" transform="rotate(0,56,140)"/><rect x="77" y="137" width="6" height="6" transform="rotate(0,80,140)"/><rect x="83" y="137" width="6" height="6" transform="rotate(0,86,140)"/><rect x="89" y="137" width="6" height="6" transform="rotate(0,92,140)"/><rect x="107" y="137" width="6" height="6" transform="rotate(0,110,140)"/><rect x="113" y="137" width="6" height="6" transform="rotate(0,116,140)"/><rect x="131" y="137" width="6" height="6" transform="rotate(0,134,140)"/><rect x="137" y="137" width="6" height="6" transform="rotate(0,140,140)"/><rect x="155" y="137" width="6" height="6" transform="rotate(0,158,140)"/><rect x="161" y="137" width="6" height="6" transform="rotate(0,164,140)"/><rect x="185" y="137" width="6" height="6" transform="rotate(0,188,140)"/><rect x="191" y="137" width="6" height="6" transform="rotate(0,194,140)"/><rect x="197" y="137" width="6" height="6" transform="rotate(0,200,140)"/><rect x="203" y="137" width="6" height="6" transform="rotate(0,206,140)"/><rect x="209" y="137" width="6" height="6" transform="rotate(0,212,140)"/><rect x="215" y="137" width="6" height="6" transform="rotate(0,218,140)"/><rect x="53" y="143" width="6" height="6" transform="rotate(0,56,146)"/><rect x="71" y="143" width="6" height="6" transform="rotate(0,74,146)"/><rect x="83" y="143" width="6" height="6" transform="rotate(0,86,146)"/><rect x="89" y="143" width="6" height="6" transform="rotate(0,92,146)"/><rect x="107" y="143" width="6" height="6" transform="rotate(0,110,146)"/><rect x="131" y="143" width="6" height="6" transform="rotate(0,134,146)"/><rect x="143" y="143" width="6" height="6" transform="rotate(0,146,146)"/><rect x="155" y="143" width="6" height="6" transform="rotate(0,158,146)"/><rect x="167" y="143" width="6" height="6" transform="rotate(0,170,146)"/><rect x="173" y="143" width="6" height="6" transform="rotate(0,176,146)"/><rect x="191" y="143" width="6" height="6" transform="rotate(0,194,146)"/><rect x="197" y="143" width="6" height="6" transform="rotate(0,200,146)"/><rect x="209" y="143" width="6" height="6" transform="rotate(0,212,146)"/><rect x="221" y="143" width="6" height="6" transform="rotate(0,224,146)"/><rect x="227" y="143" width="6" height="6" transform="rotate(0,230,146)"/><rect x="233" y="143" width="6" height="6" transform="rotate(0,236,146)"/><rect x="41" y="149" width="6" height="6" transform="rotate(0,44,152)"/><rect x="47" y="149" width="6" height="6" transform="rotate(0,50,152)"/><rect x="53" y="149" width="6" height="6" transform="rotate(0,56,152)"/><rect x="59" y="149" width="6" height="6" transform="rotate(0,62,152)"/><rect x="77" y="149" width="6" height="6" transform="rotate(0,80,152)"/><rect x="83" y="149" width="6" height="6" transform="rotate(0,86,152)"/><rect x="89" y="149" width="6" height="6" transform="rotate(0,92,152)"/><rect x="101" y="149" width="6" height="6" transform="rotate(0,104,152)"/><rect x="107" y="149" width="6" height="6" transform="rotate(0,110,152)"/><rect x="113" y="149" width="6" height="6" transform="rotate(0,116,152)"/><rect x="119" y="149" width="6" height="6" transform="rotate(0,122,152)"/><rect x="131" y="149" width="6" height="6" transform="rotate(0,134,152)"/><rect x="143" y="149" width="6" height="6" transform="rotate(0,146,152)"/><rect x="149" y="149" width="6" height="6" transform="rotate(0,152,152)"/><rect x="155" y="149" width="6" height="6" transform="rotate(0,158,152)"/><rect x="161" y="149" width="6" height="6" transform="rotate(0,164,152)"/><rect x="179" y="149" width="6" height="6" transform="rotate(0,182,152)"/><rect x="191" y="149" width="6" height="6" transform="rotate(0,194,152)"/><rect x="197" y="149" width="6" height="6" transform="rotate(0,200,152)"/><rect x="203" y="149" width="6" height="6" transform="rotate(0,206,152)"/><rect x="215" y="149" width="6" height="6" transform="rotate(0,218,152)"/><rect x="221" y="149" width="6" height="6" transform="rotate(0,224,152)"/><rect x="233" y="149" width="6" height="6" transform="rotate(0,236,152)"/><rect x="47" y="155" width="6" height="6" transform="rotate(0,50,158)"/><rect x="53" y="155" width="6" height="6" transform="rotate(0,56,158)"/><rect x="65" y="155" width="6" height="6" transform="rotate(0,68,158)"/><rect x="71" y="155" width="6" height="6" transform="rotate(0,74,158)"/><rect x="107" y="155" width="6" height="6" transform="rotate(0,110,158)"/><rect x="119" y="155" width="6" height="6" transform="rotate(0,122,158)"/><rect x="131" y="155" width="6" height="6" transform="rotate(0,134,158)"/><rect x="137" y="155" width="6" height="6" transform="rotate(0,140,158)"/><rect x="149" y="155" width="6" height="6" transform="rotate(0,152,158)"/><rect x="167" y="155" width="6" height="6" transform="rotate(0,170,158)"/><rect x="191" y="155" width="6" height="6" transform="rotate(0,194,158)"/><rect x="197" y="155" width="6" height="6" transform="rotate(0,200,158)"/><rect x="209" y="155" width="6" height="6" transform="rotate(0,212,158)"/><rect x="215" y="155" width="6" height="6" transform="rotate(0,218,158)"/><rect x="221" y="155" width="6" height="6" transform="rotate(0,224,158)"/><rect x="227" y="155" width="6" height="6" transform="rotate(0,230,158)"/><rect x="53" y="161" width="6" height="6" transform="rotate(0,56,164)"/><rect x="59" y="161" width="6" height="6" transform="rotate(0,62,164)"/><rect x="71" y="161" width="6" height="6" transform="rotate(0,74,164)"/><rect x="77" y="161" width="6" height="6" transform="rotate(0,80,164)"/><rect x="95" y="161" width="6" height="6" transform="rotate(0,98,164)"/><rect x="131" y="161" width="6" height="6" transform="rotate(0,134,164)"/><rect x="161" y="161" width="6" height="6" transform="rotate(0,164,164)"/><rect x="167" y="161" width="6" height="6" transform="rotate(0,170,164)"/><rect x="179" y="161" width="6" height="6" transform="rotate(0,182,164)"/><rect x="185" y="161" width="6" height="6" transform="rotate(0,188,164)"/><rect x="203" y="161" width="6" height="6" transform="rotate(0,206,164)"/><rect x="215" y="161" width="6" height="6" transform="rotate(0,218,164)"/><rect x="233" y="161" width="6" height="6" transform="rotate(0,236,164)"/><rect x="41" y="167" width="6" height="6" transform="rotate(0,44,170)"/><rect x="65" y="167" width="6" height="6" transform="rotate(0,68,170)"/><rect x="89" y="167" width="6" height="6" transform="rotate(0,92,170)"/><rect x="95" y="167" width="6" height="6" transform="rotate(0,98,170)"/><rect x="107" y="167" width="6" height="6" transform="rotate(0,110,170)"/><rect x="137" y="167" width="6" height="6" transform="rotate(0,140,170)"/><rect x="143" y="167" width="6" height="6" transform="rotate(0,146,170)"/><rect x="161" y="167" width="6" height="6" transform="rotate(0,164,170)"/><rect x="167" y="167" width="6" height="6" transform="rotate(0,170,170)"/><rect x="173" y="167" width="6" height="6" transform="rotate(0,176,170)"/><rect x="185" y="167" width="6" height="6" transform="rotate(0,188,170)"/><rect x="191" y="167" width="6" height="6" transform="rotate(0,194,170)"/><rect x="209" y="167" width="6" height="6" transform="rotate(0,212,170)"/><rect x="221" y="167" width="6" height="6" transform="rotate(0,224,170)"/><rect x="41" y="173" width="6" height="6" transform="rotate(0,44,176)"/><rect x="59" y="173" width="6" height="6" transform="rotate(0,62,176)"/><rect x="65" y="173" width="6" height="6" transform="rotate(0,68,176)"/><rect x="71" y="173" width="6" height="6" transform="rotate(0,74,176)"/><rect x="77" y="173" width="6" height="6" transform="rotate(0,80,176)"/><rect x="107" y="173" width="6" height="6" transform="rotate(0,110,176)"/><rect x="113" y="173" width="6" height="6" transform="rotate(0,116,176)"/><rect x="119" y="173" width="6" height="6" transform="rotate(0,122,176)"/><rect x="131" y="173" width="6" height="6" transform="rotate(0,134,176)"/><rect x="137" y="173" width="6" height="6" transform="rotate(0,140,176)"/><rect x="149" y="173" width="6" height="6" transform="rotate(0,152,176)"/><rect x="167" y="173" width="6" height="6" transform="rotate(0,170,176)"/><rect x="173" y="173" width="6" height="6" transform="rotate(0,176,176)"/><rect x="179" y="173" width="6" height="6" transform="rotate(0,182,176)"/><rect x="197" y="173" width="6" height="6" transform="rotate(0,200,176)"/><rect x="203" y="173" width="6" height="6" transform="rotate(0,206,176)"/><rect x="221" y="173" width="6" height="6" transform="rotate(0,224,176)"/><rect x="227" y="173" width="6" height="6" transform="rotate(0,230,176)"/><rect x="233" y="173" width="6" height="6" transform="rotate(0,236,176)"/><rect x="41" y="179" width="6" height="6" transform="rotate(0,44,182)"/><rect x="53" y="179" width="6" height="6" transform="rotate(0,56,182)"/><rect x="83" y="179" width="6" height="6" transform="rotate(0,86,182)"/><rect x="89" y="179" width="6" height="6" transform="rotate(0,92,182)"/><rect x="95" y="179" width="6" height="6" transform="rotate(0,98,182)"/><rect x="101" y="179" width="6" height="6" transform="rotate(0,104,182)"/><rect x="107" y="179" width="6" height="6" transform="rotate(0,110,182)"/><rect x="113" y="179" width="6" height="6" transform="rotate(0,116,182)"/><rect x="119" y="179" width="6" height="6" transform="rotate(0,122,182)"/><rect x="137" y="179" width="6" height="6" transform="rotate(0,140,182)"/><rect x="149" y="179" width="6" height="6" transform="rotate(0,152,182)"/><rect x="191" y="179" width="6" height="6" transform="rotate(0,194,182)"/><rect x="203" y="179" width="6" height="6" transform="rotate(0,206,182)"/><rect x="221" y="179" width="6" height="6" transform="rotate(0,224,182)"/><rect x="233" y="179" width="6" height="6" transform="rotate(0,236,182)"/><rect x="41" y="185" width="6" height="6" transform="rotate(0,44,188)"/><rect x="47" y="185" width="6" height="6" transform="rotate(0,50,188)"/><rect x="53" y="185" width="6" height="6" transform="rotate(0,56,188)"/><rect x="65" y="185" width="6" height="6" transform="rotate(0,68,188)"/><rect x="71" y="185" width="6" height="6" transform="rotate(0,74,188)"/><rect x="77" y="185" width="6" height="6" transform="rotate(0,80,188)"/><rect x="83" y="185" width="6" height="6" transform="rotate(0,86,188)"/><rect x="89" y="185" width="6" height="6" transform="rotate(0,92,188)"/><rect x="101" y="185" width="6" height="6" transform="rotate(0,104,188)"/><rect x="113" y="185" width="6" height="6" transform="rotate(0,116,188)"/><rect x="119" y="185" width="6" height="6" transform="rotate(0,122,188)"/><rect x="125" y="185" width="6" height="6" transform="rotate(0,128,188)"/><rect x="155" y="185" width="6" height="6" transform="rotate(0,158,188)"/><rect x="161" y="185" width="6" height="6" transform="rotate(0,164,188)"/><rect x="185" y="185" width="6" height="6" transform="rotate(0,188,188)"/><rect x="191" y="185" width="6" height="6" transform="rotate(0,194,188)"/><rect x="197" y="185" width="6" height="6" transform="rotate(0,200,188)"/><rect x="203" y="185" width="6" height="6" transform="rotate(0,206,188)"/><rect x="209" y="185" width="6" height="6" transform="rotate(0,212,188)"/><rect x="215" y="185" width="6" height="6" transform="rotate(0,218,188)"/><rect x="227" y="185" width="6" height="6" transform="rotate(0,230,188)"/><rect x="233" y="185" width="6" height="6" transform="rotate(0,236,188)"/><rect x="89" y="191" width="6" height="6" transform="rotate(0,92,194)"/><rect x="95" y="191" width="6" height="6" transform="rotate(0,98,194)"/><rect x="107" y="191" width="6" height="6" transform="rotate(0,110,194)"/><rect x="113" y="191" width="6" height="6" transform="rotate(0,116,194)"/><rect x="119" y="191" width="6" height="6" transform="rotate(0,122,194)"/><rect x="137" y="191" width="6" height="6" transform="rotate(0,140,194)"/><rect x="149" y="191" width="6" height="6" transform="rotate(0,152,194)"/><rect x="185" y="191" width="6" height="6" transform="rotate(0,188,194)"/><rect x="209" y="191" width="6" height="6" transform="rotate(0,212,194)"/><rect x="221" y="191" width="6" height="6" transform="rotate(0,224,194)"/><rect x="227" y="191" width="6" height="6" transform="rotate(0,230,194)"/><rect x="107" y="197" width="6" height="6" transform="rotate(0,110,200)"/><rect x="119" y="197" width="6" height="6" transform="rotate(0,122,200)"/><rect x="131" y="197" width="6" height="6" transform="rotate(0,134,200)"/><rect x="137" y="197" width="6" height="6" transform="rotate(0,140,200)"/><rect x="143" y="197" width="6" height="6" transform="rotate(0,146,200)"/><rect x="155" y="197" width="6" height="6" transform="rotate(0,158,200)"/><rect x="161" y="197" width="6" height="6" transform="rotate(0,164,200)"/><rect x="167" y="197" width="6" height="6" transform="rotate(0,170,200)"/><rect x="173" y="197" width="6" height="6" transform="rotate(0,176,200)"/><rect x="179" y="197" width="6" height="6" transform="rotate(0,182,200)"/><rect x="185" y="197" width="6" height="6" transform="rotate(0,188,200)"/><rect x="197" y="197" width="6" height="6" transform="rotate(0,200,200)"/><rect x="209" y="197" width="6" height="6" transform="rotate(0,212,200)"/><rect x="221" y="197" width="6" height="6" transform="rotate(0,224,200)"/><rect x="89" y="203" width="6" height="6" transform="rotate(0,92,206)"/><rect x="95" y="203" width="6" height="6" transform="rotate(0,98,206)"/><rect x="101" y="203" width="6" height="6" transform="rotate(0,104,206)"/><rect x="107" y="203" width="6" height="6" transform="rotate(0,110,206)"/><rect x="137" y="203" width="6" height="6" transform="rotate(0,140,206)"/><rect x="143" y="203" width="6" height="6" transform="rotate(0,146,206)"/><rect x="185" y="203" width="6" height="6" transform="rotate(0,188,206)"/><rect x="209" y="203" width="6" height="6" transform="rotate(0,212,206)"/><rect x="215" y="203" width="6" height="6" transform="rotate(0,218,206)"/><rect x="221" y="203" width="6" height="6" transform="rotate(0,224,206)"/><rect x="227" y="203" width="6" height="6" transform="rotate(0,230,206)"/><rect x="89" y="209" width="6" height="6" transform="rotate(0,92,212)"/><rect x="95" y="209" width="6" height="6" transform="rotate(0,98,212)"/><rect x="101" y="209" width="6" height="6" transform="rotate(0,104,212)"/><rect x="107" y="209" width="6" height="6" transform="rotate(0,110,212)"/><rect x="113" y="209" width="6" height="6" transform="rotate(0,116,212)"/><rect x="119" y="209" width="6" height="6" transform="rotate(0,122,212)"/><rect x="125" y="209" width="6" height="6" transform="rotate(0,128,212)"/><rect x="143" y="209" width="6" height="6" transform="rotate(0,146,212)"/><rect x="149" y="209" width="6" height="6" transform="rotate(0,152,212)"/><rect x="161" y="209" width="6" height="6" transform="rotate(0,164,212)"/><rect x="167" y="209" width="6" height="6" transform="rotate(0,170,212)"/><rect x="179" y="209" width="6" height="6" transform="rotate(0,182,212)"/><rect x="185" y="209" width="6" height="6" transform="rotate(0,188,212)"/><rect x="191" y="209" width="6" height="6" transform="rotate(0,194,212)"/><rect x="197" y="209" width="6" height="6" transform="rotate(0,200,212)"/><rect x="203" y="209" width="6" height="6" transform="rotate(0,206,212)"/><rect x="209" y="209" width="6" height="6" transform="rotate(0,212,212)"/><rect x="227" y="209" width="6" height="6" transform="rotate(0,230,212)"/><rect x="89" y="215" width="6" height="6" transform="rotate(0,92,218)"/><rect x="95" y="215" width="6" height="6" transform="rotate(0,98,218)"/><rect x="101" y="215" width="6" height="6" transform="rotate(0,104,218)"/><rect x="107" y="215" width="6" height="6" transform="rotate(0,110,218)"/><rect x="113" y="215" width="6" height="6" transform="rotate(0,116,218)"/><rect x="119" y="215" width="6" height="6" transform="rotate(0,122,218)"/><rect x="125" y="215" width="6" height="6" transform="rotate(0,128,218)"/><rect x="137" y="215" width="6" height="6" transform="rotate(0,140,218)"/><rect x="149" y="215" width="6" height="6" transform="rotate(0,152,218)"/><rect x="161" y="215" width="6" height="6" transform="rotate(0,164,218)"/><rect x="179" y="215" width="6" height="6" transform="rotate(0,182,218)"/><rect x="191" y="215" width="6" height="6" transform="rotate(0,194,218)"/><rect x="203" y="215" width="6" height="6" transform="rotate(0,206,218)"/><rect x="215" y="215" width="6" height="6" transform="rotate(0,218,218)"/><rect x="233" y="215" width="6" height="6" transform="rotate(0,236,218)"/><rect x="95" y="221" width="6" height="6" transform="rotate(0,98,224)"/><rect x="119" y="221" width="6" height="6" transform="rotate(0,122,224)"/><rect x="125" y="221" width="6" height="6" transform="rotate(0,128,224)"/><rect x="131" y="221" width="6" height="6" transform="rotate(0,134,224)"/><rect x="143" y="221" width="6" height="6" transform="rotate(0,146,224)"/><rect x="149" y="221" width="6" height="6" transform="rotate(0,152,224)"/><rect x="161" y="221" width="6" height="6" transform="rotate(0,164,224)"/><rect x="179" y="221" width="6" height="6" transform="rotate(0,182,224)"/><rect x="185" y="221" width="6" height="6" transform="rotate(0,188,224)"/><rect x="203" y="221" width="6" height="6" transform="rotate(0,206,224)"/><rect x="209" y="221" width="6" height="6" transform="rotate(0,212,224)"/><rect x="221" y="221" width="6" height="6" transform="rotate(0,224,224)"/><rect x="227" y="221" width="6" height="6" transform="rotate(0,230,224)"/><rect x="233" y="221" width="6" height="6" transform="rotate(0,236,224)"/><rect x="89" y="227" width="6" height="6" transform="rotate(0,92,230)"/><rect x="95" y="227" width="6" height="6" transform="rotate(0,98,230)"/><rect x="119" y="227" width="6" height="6" transform="rotate(0,122,230)"/><rect x="125" y="227" width="6" height="6" transform="rotate(0,128,230)"/><rect x="137" y="227" width="6" height="6" transform="rotate(0,140,230)"/><rect x="143" y="227" width="6" height="6" transform="rotate(0,146,230)"/><rect x="173" y="227" width="6" height="6" transform="rotate(0,176,230)"/><rect x="191" y="227" width="6" height="6" transform="rotate(0,194,230)"/><rect x="197" y="227" width="6" height="6" transform="rotate(0,200,230)"/><rect x="203" y="227" width="6" height="6" transform="rotate(0,206,230)"/><rect x="209" y="227" width="6" height="6" transform="rotate(0,212,230)"/><rect x="215" y="227" width="6" height="6" transform="rotate(0,218,230)"/><rect x="221" y="227" width="6" height="6" transform="rotate(0,224,230)"/><rect x="227" y="227" width="6" height="6" transform="rotate(0,230,230)"/><rect x="233" y="227" width="6" height="6" transform="rotate(0,236,230)"/><rect x="95" y="233" width="6" height="6" transform="rotate(0,98,236)"/><rect x="101" y="233" width="6" height="6" transform="rotate(0,104,236)"/><rect x="107" y="233" width="6" height="6" transform="rotate(0,110,236)"/><rect x="113" y="233" width="6" height="6" transform="rotate(0,116,236)"/><rect x="119" y="233" width="6" height="6" transform="rotate(0,122,236)"/><rect x="137" y="233" width="6" height="6" transform="rotate(0,140,236)"/><rect x="143" y="233" width="6" height="6" transform="rotate(0,146,236)"/><rect x="149" y="233" width="6" height="6" transform="rotate(0,152,236)"/><rect x="185" y="233" width="6" height="6" transform="rotate(0,188,236)"/><rect x="191" y="233" width="6" height="6" transform="rotate(0,194,236)"/><rect x="203" y="233" width="6" height="6" transform="rotate(0,206,236)"/><rect x="209" y="233" width="6" height="6" transform="rotate(0,212,236)"/></clipPath><linearGradient id="dot-color-3" gradientUnits="userSpaceOnUse" x1="0" y1="280" x2="280" y2="0"><stop offset="0%" stop-color="#1B1812"/><stop offset="100%" stop-color="#2C4A8A"/></linearGradient><clipPath id="clip-path-corners-square-color-0-0-3"><path clip-rule="evenodd" d="M 41 41v 42h 42v -42zM 47 47h 30v 30h -30z" transform="rotate(0,62,62)"/></clipPath><linearGradient id="corners-square-color-0-0-3" gradientUnits="userSpaceOnUse" x1="41" y1="83" x2="83" y2="41"><stop offset="0%" stop-color="#1B1812"/><stop offset="100%" stop-color="#2C4A8A"/></linearGradient><clipPath id="clip-path-corners-dot-color-0-0-3"><rect x="53" y="53" width="18" height="18" transform="rotate(0,62,62)"/></clipPath><linearGradient id="corners-dot-color-0-0-3" gradientUnits="userSpaceOnUse" x1="53" y1="71" x2="71" y2="53"><stop offset="0%" stop-color="#1B1812"/><stop offset="100%" stop-color="#2C4A8A"/></linearGradient><clipPath id="clip-path-corners-square-color-1-0-3"><path clip-rule="evenodd" d="M 197 41v 42h 42v -42zM 203 47h 30v 30h -30z" transform="rotate(90,218,62)"/></clipPath><linearGradient id="corners-square-color-1-0-3" gradientUnits="userSpaceOnUse" x1="197" y1="41" x2="239" y2="83"><stop offset="0%" stop-color="#1B1812"/><stop offset="100%" stop-color="#2C4A8A"/></linearGradient><clipPath id="clip-path-corners-dot-color-1-0-3"><rect x="209" y="53" width="18" height="18" transform="rotate(90,218,62)"/></clipPath><linearGradient id="corners-dot-color-1-0-3" gradientUnits="userSpaceOnUse" x1="209" y1="53" x2="227" y2="71"><stop offset="0%" stop-color="#1B1812"/><stop offset="100%" stop-color="#2C4A8A"/></linearGradient><clipPath id="clip-path-corners-square-color-0-1-3"><path clip-rule="evenodd" d="M 41 197v 42h 42v -42zM 47 203h 30v 30h -30z" transform="rotate(-90,62,218)"/></clipPath><linearGradient id="corners-square-color-0-1-3" gradientUnits="userSpaceOnUse" x1="83" y1="239" x2="41" y2="197"><stop offset="0%" stop-color="#1B1812"/><stop offset="100%" stop-color="#2C4A8A"/></linearGradient><clipPath id="clip-path-corners-dot-color-0-1-3"><rect x="53" y="209" width="18" height="18" transform="rotate(-90,62,218)"/></clipPath><linearGradient id="corners-dot-color-0-1-3" gradientUnits="userSpaceOnUse" x1="71" y1="227" x2="53" y2="209"><stop offset="0%" stop-color="#1B1812"/><stop offset="100%" stop-color="#2C4A8A"/></linearGradient></defs><rect x="0" y="0" height="280" width="280" clip-path="url('#clip-path-background-color-3')" fill="#FFFFFF"/><rect x="0" y="0" height="280" width="280" clip-path="url('#clip-path-dot-color-3')" fill="url('#dot-color-3')"/><rect x="41" y="41" height="42" width="42" clip-path="url('#clip-path-corners-square-color-0-0-3')" fill="url('#corners-square-color-0-0-3')"/><rect x="53" y="53" height="18" width="18" clip-path="url('#clip-path-corners-dot-color-0-0-3')" fill="url('#corners-dot-color-0-0-3')"/><rect x="197" y="41" height="42" width="42" clip-path="url('#clip-path-corners-square-color-1-0-3')" fill="url('#corners-square-color-1-0-3')"/><rect x="209" y="53" height="18" width="18" clip-path="url('#clip-path-corners-dot-color-1-0-3')" fill="url('#corners-dot-color-1-0-3')"/><rect x="41" y="197" height="42" width="42" clip-path="url('#clip-path-corners-square-color-0-1-3')" fill="url('#corners-square-color-0-1-3')"/><rect x="53" y="209" height="18" width="18" clip-path="url('#clip-path-corners-dot-color-0-1-3')" fill="url('#corners-dot-color-0-1-3')"/></svg>